<mxfile host="app.diagrams.net" modified="2023-08-31T12:46:12.528Z" agent="Mozilla/5.0 (Windows NT 10.0; Win64; x64) AppleWebKit/537.36 (KHTML, like Gecko) Chrome/116.0.0.0 Safari/537.36 Edg/116.0.1938.62" etag="lLcAzHSgvG6oRz74RXmZ" version="21.7.1" type="github">
  <diagram id="6a731a19-8d31-9384-78a2-239565b7b9f0" name="Page-1">
    <mxGraphModel dx="2603" dy="756" grid="1" gridSize="10" guides="1" tooltips="1" connect="1" arrows="1" fold="1" page="1" pageScale="1" pageWidth="1169" pageHeight="827" background="#003469" math="0" shadow="0">
      <root>
        <mxCell id="0" />
        <mxCell id="1" parent="0" />
        <mxCell id="2019" value="" style="rounded=1;whiteSpace=wrap;html=1;dashed=1;strokeColor=none;strokeWidth=2;fillColor=#E6E6E6;fontFamily=Verdana;fontSize=12;fontColor=#00BEF2" parent="1" vertex="1">
          <mxGeometry x="40" y="30" width="390" height="550" as="geometry" />
        </mxCell>
        <mxCell id="2020" value="" style="rounded=1;whiteSpace=wrap;html=1;dashed=1;strokeColor=none;strokeWidth=2;fillColor=#E6E6E6;fontFamily=Verdana;fontSize=12;fontColor=#00BEF2" parent="1" vertex="1">
          <mxGeometry x="450" y="39" width="820" height="750" as="geometry" />
        </mxCell>
        <mxCell id="lC44Cmv5fuEgETvMBv-x-2127" value="" style="rounded=1;whiteSpace=wrap;html=1;dashed=1;strokeColor=none;strokeWidth=2;fillColor=#CC99FF;fontFamily=Verdana;fontSize=12;fontColor=#00BEF2" vertex="1" parent="1">
          <mxGeometry x="710" y="180" width="510" height="560.5" as="geometry" />
        </mxCell>
        <mxCell id="2025" value="EU West" style="whiteSpace=wrap;html=1;dashed=1;strokeColor=none;strokeWidth=2;fillColor=#3399FF;fontFamily=Helvetica;fontSize=18;fontColor=#FFFFFF;fontStyle=1" parent="1" vertex="1">
          <mxGeometry x="152.5" y="10" width="165" height="60" as="geometry" />
        </mxCell>
        <mxCell id="2026" value="CH North" style="whiteSpace=wrap;html=1;dashed=1;strokeColor=none;strokeWidth=2;fillColor=#3399FF;fontFamily=Helvetica;fontSize=18;fontColor=#FFFFFF;fontStyle=1" parent="1" vertex="1">
          <mxGeometry x="608.5" y="10" width="380" height="60" as="geometry" />
        </mxCell>
        <mxCell id="2036" value="" style="verticalLabelPosition=bottom;html=1;verticalAlign=top;strokeColor=none;fillColor=#003366;shape=mxgraph.azure.cloud_service;dashed=1;fontFamily=Helvetica;fontSize=18;fontColor=#FFFFFF;opacity=10;" parent="1" vertex="1">
          <mxGeometry x="50" y="165" width="970" height="600" as="geometry" />
        </mxCell>
        <mxCell id="2075" value="" style="arrow;html=1;endArrow=block;endFill=1;strokeColor=none;strokeWidth=4;fontFamily=Helvetica;fontSize=36;fontColor=#FFB366;fillColor=#FFB366;" parent="1" edge="1">
          <mxGeometry width="100" height="100" relative="1" as="geometry">
            <mxPoint x="-40" y="108" as="sourcePoint" />
            <mxPoint x="40" y="108" as="targetPoint" />
          </mxGeometry>
        </mxCell>
        <mxCell id="2077" value="" style="arrow;html=1;endArrow=block;endFill=1;strokeColor=none;strokeWidth=4;fontFamily=Helvetica;fontSize=36;fontColor=#FFB366;fillColor=#FFB366;" parent="1" edge="1" target="lC44Cmv5fuEgETvMBv-x-2113" source="lC44Cmv5fuEgETvMBv-x-2088">
          <mxGeometry width="100" height="100" relative="1" as="geometry">
            <mxPoint x="240" y="330" as="sourcePoint" />
            <mxPoint x="320" y="330" as="targetPoint" />
          </mxGeometry>
        </mxCell>
        <mxCell id="2083" value="" style="arrow;html=1;endArrow=block;endFill=1;strokeColor=none;strokeWidth=4;fontFamily=Helvetica;fontSize=36;fontColor=#FFB366;fillColor=#FFB366;" parent="1" edge="1" target="lC44Cmv5fuEgETvMBv-x-2114">
          <mxGeometry width="100" height="100" relative="1" as="geometry">
            <mxPoint x="190" y="464.5" as="sourcePoint" />
            <mxPoint x="270" y="464.5" as="targetPoint" />
          </mxGeometry>
        </mxCell>
        <mxCell id="lC44Cmv5fuEgETvMBv-x-2086" value="Nginx GW LB" style="image;aspect=fixed;html=1;points=[];align=center;fontSize=12;image=img/lib/azure2/networking/Load_Balancers.svg;" vertex="1" parent="1">
          <mxGeometry x="502" y="290" width="72" height="72" as="geometry" />
        </mxCell>
        <mxCell id="lC44Cmv5fuEgETvMBv-x-2087" value="Nginx Mgmt Lb" style="image;aspect=fixed;html=1;points=[];align=center;fontSize=12;image=img/lib/azure2/networking/Load_Balancers.svg;" vertex="1" parent="1">
          <mxGeometry x="502" y="429" width="72" height="72" as="geometry" />
        </mxCell>
        <mxCell id="lC44Cmv5fuEgETvMBv-x-2088" value="Global LB GW" style="image;sketch=0;aspect=fixed;html=1;points=[];align=center;fontSize=12;image=img/lib/mscae/Load_Balancer_feature.svg;" vertex="1" parent="1">
          <mxGeometry x="155" y="300" width="70" height="70" as="geometry" />
        </mxCell>
        <mxCell id="lC44Cmv5fuEgETvMBv-x-2105" style="edgeStyle=orthogonalEdgeStyle;rounded=0;orthogonalLoop=1;jettySize=auto;html=1;entryX=0.025;entryY=0.344;entryDx=0;entryDy=0;entryPerimeter=0;" edge="1" parent="1" source="lC44Cmv5fuEgETvMBv-x-2090" target="lC44Cmv5fuEgETvMBv-x-2092">
          <mxGeometry relative="1" as="geometry" />
        </mxCell>
        <mxCell id="lC44Cmv5fuEgETvMBv-x-2106" style="edgeStyle=orthogonalEdgeStyle;rounded=0;orthogonalLoop=1;jettySize=auto;html=1;entryX=-0.025;entryY=0.813;entryDx=0;entryDy=0;entryPerimeter=0;" edge="1" parent="1" source="lC44Cmv5fuEgETvMBv-x-2090" target="lC44Cmv5fuEgETvMBv-x-2095">
          <mxGeometry relative="1" as="geometry" />
        </mxCell>
        <mxCell id="lC44Cmv5fuEgETvMBv-x-2090" value="PIP /31" style="image;aspect=fixed;html=1;points=[];align=center;fontSize=12;image=img/lib/azure2/networking/Public_IP_Prefixes.svg;" vertex="1" parent="1">
          <mxGeometry x="70" y="85.56" width="70" height="54.44" as="geometry" />
        </mxCell>
        <mxCell id="lC44Cmv5fuEgETvMBv-x-2123" style="edgeStyle=orthogonalEdgeStyle;rounded=0;orthogonalLoop=1;jettySize=auto;html=1;" edge="1" parent="1" source="lC44Cmv5fuEgETvMBv-x-2092" target="lC44Cmv5fuEgETvMBv-x-2088">
          <mxGeometry relative="1" as="geometry" />
        </mxCell>
        <mxCell id="lC44Cmv5fuEgETvMBv-x-2092" value="GW IP" style="image;aspect=fixed;html=1;points=[];align=center;fontSize=12;image=img/lib/azure2/networking/Public_IP_Addresses.svg;" vertex="1" parent="1">
          <mxGeometry x="170" y="185" width="40" height="32" as="geometry" />
        </mxCell>
        <mxCell id="lC44Cmv5fuEgETvMBv-x-2126" style="edgeStyle=orthogonalEdgeStyle;rounded=0;orthogonalLoop=1;jettySize=auto;html=1;entryX=0;entryY=0.5;entryDx=0;entryDy=0;entryPerimeter=0;" edge="1" parent="1" source="lC44Cmv5fuEgETvMBv-x-2095" target="lC44Cmv5fuEgETvMBv-x-2101">
          <mxGeometry relative="1" as="geometry">
            <Array as="points">
              <mxPoint x="100" y="465" />
            </Array>
          </mxGeometry>
        </mxCell>
        <mxCell id="lC44Cmv5fuEgETvMBv-x-2095" value="MGMT IP" style="image;aspect=fixed;html=1;points=[];align=center;fontSize=12;image=img/lib/azure2/networking/Public_IP_Addresses.svg;" vertex="1" parent="1">
          <mxGeometry x="80" y="185" width="40" height="32" as="geometry" />
        </mxCell>
        <mxCell id="lC44Cmv5fuEgETvMBv-x-2101" value="Global LB MGMT" style="image;sketch=0;aspect=fixed;html=1;points=[];align=center;fontSize=12;image=img/lib/mscae/Load_Balancer_feature.svg;" vertex="1" parent="1">
          <mxGeometry x="120" y="430" width="70" height="70" as="geometry" />
        </mxCell>
        <mxCell id="lC44Cmv5fuEgETvMBv-x-2103" value="" style="image;aspect=fixed;perimeter=ellipsePerimeter;html=1;align=center;shadow=0;dashed=0;spacingTop=3;image=img/lib/active_directory/internet_cloud.svg;" vertex="1" parent="1">
          <mxGeometry x="-100" y="90" width="50" height="31.5" as="geometry" />
        </mxCell>
        <mxCell id="lC44Cmv5fuEgETvMBv-x-2110" style="edgeStyle=orthogonalEdgeStyle;rounded=0;orthogonalLoop=1;jettySize=auto;html=1;entryX=0.025;entryY=0.344;entryDx=0;entryDy=0;entryPerimeter=0;" edge="1" parent="1" source="lC44Cmv5fuEgETvMBv-x-2112" target="lC44Cmv5fuEgETvMBv-x-2113">
          <mxGeometry relative="1" as="geometry" />
        </mxCell>
        <mxCell id="lC44Cmv5fuEgETvMBv-x-2111" style="edgeStyle=orthogonalEdgeStyle;rounded=0;orthogonalLoop=1;jettySize=auto;html=1;entryX=-0.025;entryY=0.813;entryDx=0;entryDy=0;entryPerimeter=0;" edge="1" parent="1" source="lC44Cmv5fuEgETvMBv-x-2112" target="lC44Cmv5fuEgETvMBv-x-2114">
          <mxGeometry relative="1" as="geometry" />
        </mxCell>
        <mxCell id="lC44Cmv5fuEgETvMBv-x-2117" style="edgeStyle=orthogonalEdgeStyle;rounded=0;orthogonalLoop=1;jettySize=auto;html=1;entryX=0.025;entryY=0.656;entryDx=0;entryDy=0;entryPerimeter=0;" edge="1" parent="1" source="lC44Cmv5fuEgETvMBv-x-2112" target="lC44Cmv5fuEgETvMBv-x-2116">
          <mxGeometry relative="1" as="geometry" />
        </mxCell>
        <mxCell id="lC44Cmv5fuEgETvMBv-x-2118" style="edgeStyle=orthogonalEdgeStyle;rounded=0;orthogonalLoop=1;jettySize=auto;html=1;entryX=0.025;entryY=0.781;entryDx=0;entryDy=0;entryPerimeter=0;" edge="1" parent="1" source="lC44Cmv5fuEgETvMBv-x-2112" target="lC44Cmv5fuEgETvMBv-x-2115">
          <mxGeometry relative="1" as="geometry" />
        </mxCell>
        <mxCell id="lC44Cmv5fuEgETvMBv-x-2112" value="PIP /30" style="image;aspect=fixed;html=1;points=[];align=center;fontSize=12;image=img/lib/azure2/networking/Public_IP_Prefixes.svg;" vertex="1" parent="1">
          <mxGeometry x="502" y="90" width="70" height="54.44" as="geometry" />
        </mxCell>
        <mxCell id="lC44Cmv5fuEgETvMBv-x-2128" style="edgeStyle=orthogonalEdgeStyle;rounded=0;orthogonalLoop=1;jettySize=auto;html=1;" edge="1" parent="1" source="lC44Cmv5fuEgETvMBv-x-2113" target="lC44Cmv5fuEgETvMBv-x-2086">
          <mxGeometry relative="1" as="geometry" />
        </mxCell>
        <mxCell id="lC44Cmv5fuEgETvMBv-x-2113" value="GW IN IP" style="image;aspect=fixed;html=1;points=[];align=center;fontSize=12;image=img/lib/azure2/networking/Public_IP_Addresses.svg;" vertex="1" parent="1">
          <mxGeometry x="490" y="185" width="40" height="32" as="geometry" />
        </mxCell>
        <mxCell id="lC44Cmv5fuEgETvMBv-x-2129" style="edgeStyle=orthogonalEdgeStyle;rounded=0;orthogonalLoop=1;jettySize=auto;html=1;" edge="1" parent="1" source="lC44Cmv5fuEgETvMBv-x-2114" target="lC44Cmv5fuEgETvMBv-x-2087">
          <mxGeometry relative="1" as="geometry">
            <Array as="points">
              <mxPoint x="585" y="400" />
              <mxPoint x="538" y="400" />
            </Array>
          </mxGeometry>
        </mxCell>
        <mxCell id="lC44Cmv5fuEgETvMBv-x-2114" value="MGMT IN IP" style="image;aspect=fixed;html=1;points=[];align=center;fontSize=12;image=img/lib/azure2/networking/Public_IP_Addresses.svg;" vertex="1" parent="1">
          <mxGeometry x="580" y="207" width="40" height="32" as="geometry" />
        </mxCell>
        <mxCell id="lC44Cmv5fuEgETvMBv-x-2115" value="AKS OUT IP" style="image;aspect=fixed;html=1;points=[];align=center;fontSize=12;image=img/lib/azure2/networking/Public_IP_Addresses.svg;" vertex="1" parent="1">
          <mxGeometry x="650" y="80" width="40" height="32" as="geometry" />
        </mxCell>
        <mxCell id="lC44Cmv5fuEgETvMBv-x-2116" value="Unused" style="image;aspect=fixed;html=1;points=[];align=center;fontSize=12;image=img/lib/azure2/networking/Public_IP_Addresses.svg;" vertex="1" parent="1">
          <mxGeometry x="652" y="146" width="40" height="32" as="geometry" />
        </mxCell>
        <mxCell id="lC44Cmv5fuEgETvMBv-x-2156" style="edgeStyle=orthogonalEdgeStyle;rounded=0;orthogonalLoop=1;jettySize=auto;html=1;entryX=0;entryY=0.5;entryDx=0;entryDy=0;" edge="1" parent="1" source="lC44Cmv5fuEgETvMBv-x-2130" target="lC44Cmv5fuEgETvMBv-x-2141">
          <mxGeometry relative="1" as="geometry" />
        </mxCell>
        <mxCell id="lC44Cmv5fuEgETvMBv-x-2130" value="" style="rounded=1;whiteSpace=wrap;html=1;dashed=1;strokeColor=none;strokeWidth=2;fillColor=#009900;fontFamily=Verdana;fontSize=12;fontColor=#00BEF2" vertex="1" parent="1">
          <mxGeometry x="720" y="224.5" width="240" height="175" as="geometry" />
        </mxCell>
        <mxCell id="lC44Cmv5fuEgETvMBv-x-2158" style="edgeStyle=orthogonalEdgeStyle;rounded=0;orthogonalLoop=1;jettySize=auto;html=1;entryX=0;entryY=0.5;entryDx=0;entryDy=0;" edge="1" parent="1" source="lC44Cmv5fuEgETvMBv-x-2131" target="lC44Cmv5fuEgETvMBv-x-2151">
          <mxGeometry relative="1" as="geometry" />
        </mxCell>
        <mxCell id="lC44Cmv5fuEgETvMBv-x-2159" style="edgeStyle=orthogonalEdgeStyle;rounded=0;orthogonalLoop=1;jettySize=auto;html=1;entryX=0;entryY=0.5;entryDx=0;entryDy=0;" edge="1" parent="1" source="lC44Cmv5fuEgETvMBv-x-2131" target="lC44Cmv5fuEgETvMBv-x-2152">
          <mxGeometry relative="1" as="geometry" />
        </mxCell>
        <mxCell id="lC44Cmv5fuEgETvMBv-x-2160" style="edgeStyle=orthogonalEdgeStyle;rounded=0;orthogonalLoop=1;jettySize=auto;html=1;entryX=0;entryY=0.5;entryDx=0;entryDy=0;" edge="1" parent="1" source="lC44Cmv5fuEgETvMBv-x-2131" target="lC44Cmv5fuEgETvMBv-x-2153">
          <mxGeometry relative="1" as="geometry" />
        </mxCell>
        <mxCell id="lC44Cmv5fuEgETvMBv-x-2182" style="edgeStyle=orthogonalEdgeStyle;rounded=0;orthogonalLoop=1;jettySize=auto;html=1;entryX=0;entryY=0.5;entryDx=0;entryDy=0;" edge="1" parent="1" source="lC44Cmv5fuEgETvMBv-x-2131" target="lC44Cmv5fuEgETvMBv-x-2142">
          <mxGeometry relative="1" as="geometry" />
        </mxCell>
        <mxCell id="lC44Cmv5fuEgETvMBv-x-2131" value="" style="rounded=1;whiteSpace=wrap;html=1;dashed=1;strokeColor=none;strokeWidth=2;fillColor=#009900;fontFamily=Verdana;fontSize=12;fontColor=#00BEF2" vertex="1" parent="1">
          <mxGeometry x="720" y="521" width="240" height="175" as="geometry" />
        </mxCell>
        <mxCell id="lC44Cmv5fuEgETvMBv-x-2132" value="" style="rounded=1;whiteSpace=wrap;html=1;dashed=1;strokeColor=none;strokeWidth=2;fillColor=#E6E6E6;fontFamily=Verdana;fontSize=12;fontColor=#00BEF2" vertex="1" parent="1">
          <mxGeometry x="988.5" y="200" width="90" height="90" as="geometry" />
        </mxCell>
        <mxCell id="lC44Cmv5fuEgETvMBv-x-2096" value="AKS" style="image;aspect=fixed;html=1;points=[];align=center;fontSize=12;image=img/lib/azure2/compute/Kubernetes_Services.svg;" vertex="1" parent="1">
          <mxGeometry x="999.5" y="207" width="68" height="60" as="geometry" />
        </mxCell>
        <mxCell id="lC44Cmv5fuEgETvMBv-x-2133" value="" style="arrow;html=1;endArrow=block;endFill=1;strokeColor=none;strokeWidth=4;fontFamily=Helvetica;fontSize=36;fontColor=#FFB366;fillColor=#FFB366;exitX=1;exitY=0.484;exitDx=0;exitDy=0;exitPerimeter=0;entryX=0;entryY=0.5;entryDx=0;entryDy=0;" edge="1" parent="1" source="lC44Cmv5fuEgETvMBv-x-2115" target="lC44Cmv5fuEgETvMBv-x-2134">
          <mxGeometry width="100" height="100" relative="1" as="geometry">
            <mxPoint x="710" y="95.5" as="sourcePoint" />
            <mxPoint x="1210" y="95" as="targetPoint" />
          </mxGeometry>
        </mxCell>
        <mxCell id="lC44Cmv5fuEgETvMBv-x-2134" value="" style="image;aspect=fixed;perimeter=ellipsePerimeter;html=1;align=center;shadow=0;dashed=0;spacingTop=3;image=img/lib/active_directory/internet_cloud.svg;" vertex="1" parent="1">
          <mxGeometry x="1300" y="80" width="50" height="31.5" as="geometry" />
        </mxCell>
        <mxCell id="lC44Cmv5fuEgETvMBv-x-2135" value="" style="arrow;html=1;endArrow=block;endFill=1;strokeColor=none;strokeWidth=4;fontFamily=Helvetica;fontSize=36;fontColor=#FFB366;fillColor=#FFB366;entryX=0.042;entryY=0.66;entryDx=0;entryDy=0;entryPerimeter=0;" edge="1" parent="1" source="lC44Cmv5fuEgETvMBv-x-2086" target="lC44Cmv5fuEgETvMBv-x-2130">
          <mxGeometry width="100" height="100" relative="1" as="geometry">
            <mxPoint x="235" y="330" as="sourcePoint" />
            <mxPoint x="500" y="219" as="targetPoint" />
          </mxGeometry>
        </mxCell>
        <mxCell id="lC44Cmv5fuEgETvMBv-x-2136" value="" style="arrow;html=1;endArrow=block;endFill=1;strokeColor=none;strokeWidth=4;fontFamily=Helvetica;fontSize=36;fontColor=#FFB366;fillColor=#FFB366;entryX=0.004;entryY=0.454;entryDx=0;entryDy=0;entryPerimeter=0;" edge="1" parent="1" source="lC44Cmv5fuEgETvMBv-x-2087" target="lC44Cmv5fuEgETvMBv-x-2131">
          <mxGeometry width="100" height="100" relative="1" as="geometry">
            <mxPoint x="594" y="480" as="sourcePoint" />
            <mxPoint x="730" y="491" as="targetPoint" />
          </mxGeometry>
        </mxCell>
        <mxCell id="lC44Cmv5fuEgETvMBv-x-2137" value="Certificates" style="verticalLabelPosition=bottom;html=1;verticalAlign=top;strokeColor=none;fillColor=#3399FF;shape=mxgraph.azure.certificate;dashed=1;fontFamily=Helvetica;fontSize=14;fontColor=#004C99" vertex="1" parent="1">
          <mxGeometry x="780" y="227" width="50" height="40" as="geometry" />
        </mxCell>
        <mxCell id="lC44Cmv5fuEgETvMBv-x-2138" value="Nginx GW" style="shape=image;verticalLabelPosition=bottom;labelBackgroundColor=#ffffff;verticalAlign=top;aspect=fixed;imageAspect=0;image=data:image/svg+xml,PHN2ZyB4bWxuczpkYz0iaHR0cDovL3B1cmwub3JnL2RjL2VsZW1lbnRzLzEuMS8iIHhtbG5zOmNjPSJodHRwOi8vY3JlYXRpdmVjb21tb25zLm9yZy9ucyMiIHhtbG5zOnJkZj0iaHR0cDovL3d3dy53My5vcmcvMTk5OS8wMi8yMi1yZGYtc3ludGF4LW5zIyIgeG1sbnM6c3ZnPSJodHRwOi8vd3d3LnczLm9yZy8yMDAwL3N2ZyIgeG1sbnM9Imh0dHA6Ly93d3cudzMub3JnLzIwMDAvc3ZnIiB4bWxuczpzb2RpcG9kaT0iaHR0cDovL3NvZGlwb2RpLnNvdXJjZWZvcmdlLm5ldC9EVEQvc29kaXBvZGktMC5kdGQiIHhtbG5zOmlua3NjYXBlPSJodHRwOi8vd3d3Lmlua3NjYXBlLm9yZy9uYW1lc3BhY2VzL2lua3NjYXBlIiB2ZXJzaW9uPSIxLjEiIGlkPSJzdmc2MTkzMyIgaW5rc2NhcGU6dmVyc2lvbj0iMC45Mi4zICgyNDA1NTQ2LCAyMDE4LTAzLTExKSIgc29kaXBvZGk6ZG9jbmFtZT0iYXp1cmVfc2VjdXJpdHkuc3ZnIiB4PSIwcHgiIHk9IjBweCIgdmlld0JveD0iMCAwIDc1LjUyIDEwMi45NyIgeG1sOnNwYWNlPSJwcmVzZXJ2ZSIgd2lkdGg9Ijc1LjUxOTk5NyIgaGVpZ2h0PSIxMDIuOTciPjxtZXRhZGF0YSBpZD0ibWV0YWRhdGExMzUxMCI+PHJkZjpSREY+PGNjOldvcmsgcmRmOmFib3V0PSIiPjxkYzpmb3JtYXQ+aW1hZ2Uvc3ZnK3htbDwvZGM6Zm9ybWF0PjxkYzp0eXBlIHJkZjpyZXNvdXJjZT0iaHR0cDovL3B1cmwub3JnL2RjL2RjbWl0eXBlL1N0aWxsSW1hZ2UiLz48ZGM6dGl0bGUvPjwvY2M6V29yaz48L3JkZjpSREY+PC9tZXRhZGF0YT48ZGVmcyBpZD0iZGVmczEzNTA4Ii8+JiN4YTs8ZmlsdGVyIGlkPSJmaWx0ZXJfMiI+JiN4YTsJPGZlR2F1c3NpYW5CbHVyIGlkPSJmZUdhdXNzaWFuQmx1cjYxODk4IiBzdGREZXZpYXRpb249IjIiLz4mI3hhOzwvZmlsdGVyPiYjeGE7PHNvZGlwb2RpOm5hbWVkdmlldyBib3JkZXJjb2xvcj0iIzY2NjY2NiIgYm9yZGVyb3BhY2l0eT0iMSIgZml0LW1hcmdpbi1ib3R0b209IjAiIGZpdC1tYXJnaW4tbGVmdD0iMCIgZml0LW1hcmdpbi1yaWdodD0iMCIgZml0LW1hcmdpbi10b3A9IjAiIGdyaWR0b2xlcmFuY2U9IjEwIiBndWlkZXRvbGVyYW5jZT0iMTAiIGlkPSJuYW1lZHZpZXc2MTkzNSIgaW5rc2NhcGU6Y3VycmVudC1sYXllcj0ic3ZnNjE5MzMiIGlua3NjYXBlOmN4PSIxMS45OTUwNzYiIGlua3NjYXBlOmN5PSI1NC43NzcxMTQiIGlua3NjYXBlOnBhZ2VvcGFjaXR5PSIwIiBpbmtzY2FwZTpwYWdlc2hhZG93PSIyIiBpbmtzY2FwZTp3aW5kb3ctaGVpZ2h0PSIxMDE3IiBpbmtzY2FwZTp3aW5kb3ctbWF4aW1pemVkPSIxIiBpbmtzY2FwZTp3aW5kb3ctd2lkdGg9IjE5MjAiIGlua3NjYXBlOndpbmRvdy14PSItOCIgaW5rc2NhcGU6d2luZG93LXk9Ii04IiBpbmtzY2FwZTp6b29tPSIzLjYwNzc3OTQiIG9iamVjdHRvbGVyYW5jZT0iMTAiIHBhZ2Vjb2xvcj0iI2ZmZmZmZiIgc2hvd2dyaWQ9ImZhbHNlIj4mI3hhOwk8L3NvZGlwb2RpOm5hbWVkdmlldz4mI3hhOyYjeGE7PHBhdGggaWQ9InBhdGg2MTkxMSIgaW5rc2NhcGU6Y29ubmVjdG9yLWN1cnZhdHVyZT0iMCIgc3R5bGU9ImZpbGw6IzdmYmEwMCIgZD0iTSA2NC4zOCwxMi4zOCBDIDQxLjY4LDkuOSAzNy43NiwwIDM3Ljc2LDAgMzcuNzYsMCAzMi42LDEyLjc5IDAsMTIuNzkgdiA1Mi44MyBjIDAsNi4zOSAzLjUxLDEyLjM4IDguNDYsMTcuNTQgMTEuMTQsMTEuNzYgMjkuMywxOS44MSAyOS4zLDE5LjgxIDAsMCAzNy43NiwtMTYuNTEgMzcuNzYsLTM3LjM1IFYgMTIuNzkgYyAtNC4xMiwwIC03Ljg0LC0wLjIgLTExLjE0LC0wLjQxIHoiLz4mI3hhOyYjeGE7PHBhdGggaWQ9InBhdGg2MTkxOSIgaW5rc2NhcGU6Y29ubmVjdG9yLWN1cnZhdHVyZT0iMCIgc3R5bGU9ImZpbGw6I2I4ZDQzMjtmaWxsLW9wYWNpdHk6MC40IiBkPSJNIDQ3LjI1LDM0LjA1IDY0LjM4LDEyLjM4IEMgNDEuNjgsOS45IDM3Ljc2LDAgMzcuNzYsMCAzNy43NiwwIDMyLjYsMTIuNzkgMCwxMi43OSBWIDY1LjYyIEMgMCw3Mi4wMSAzLjUxLDc4IDguNDYsODMuMTYgbCAxMi43OSwtMTYuMSB6Ii8+JiN4YTsmI3hhOzxwYXRoIGlkPSJwYXRoNjE5MjciIGlua3NjYXBlOmNvbm5lY3Rvci1jdXJ2YXR1cmU9IjAiIHN0eWxlPSJmaWxsOiNmZmZmZmYiIGQ9Im0gNTIuODMsNTAuNTUgaCAtMi4yNyB2IC03LjQzIGMgMCwtMy41IC0xLjI0LC02LjgxIC0zLjUxLC05LjA4IGwgLTAuMjEsLTAuMiBjIC0yLjI3LC0yLjQ4IC01LjU3LC0zLjkyIC05LjA4LC0zLjkyIC0zLjUsMCAtNi44MSwxLjY1IC05LjA4LDMuOTIgLTIuMjcsMi40NyAtMy43MSw1Ljc4IC0zLjcxLDkuNDkgdiA3LjQzIEggMjIuNyBjIC0wLjgyLDAgLTEuNjUsMC44MiAtMS42NSwxLjY1IHYgMTQuODYgNC41NCBjIDAsMC44MiAwLjgzLDEuNjUgMS42NSwxLjY1IGggMjkuOTIgYyAwLjgzLDAgMS42NSwtMC44MyAxLjY1LC0xLjY1IHYgLTE5LjQgYyAwLjIxLC0xLjI0IC0wLjYyLC0xLjg2IC0xLjQ0LC0xLjg2IHogbSAtOC4yNiwwIGggLTEwLjMxIC0zLjEgdiAtNy40MyBjIDAsLTIuMDYgMC44MywtMy45MiAyLjA2LC01LjM2IDEuMjQsLTEuMjQgMi44OSwtMi4wNyA0Ljc1LC0yLjA3IDEuODYsMCAzLjUxLDAuODMgNC43NSwyLjA3IDAuMiwwLjQxIDAuNjIsMC42MiAwLjgyLDEuMDMgMC44MywxLjI0IDEuMjQsMi42OCAxLjI0LDQuMzMgLTAuMjEsMCAtMC4yMSw3LjQzIC0wLjIxLDcuNDMgeiIvPiYjeGE7PC9zdmc+;" vertex="1" parent="1">
          <mxGeometry x="720" y="200" width="36.89" height="50" as="geometry" />
        </mxCell>
        <mxCell id="lC44Cmv5fuEgETvMBv-x-2140" value="Nginx MGMT" style="shape=image;verticalLabelPosition=bottom;labelBackgroundColor=#ffffff;verticalAlign=top;aspect=fixed;imageAspect=0;image=data:image/svg+xml,PHN2ZyB4bWxuczpkYz0iaHR0cDovL3B1cmwub3JnL2RjL2VsZW1lbnRzLzEuMS8iIHhtbG5zOmNjPSJodHRwOi8vY3JlYXRpdmVjb21tb25zLm9yZy9ucyMiIHhtbG5zOnJkZj0iaHR0cDovL3d3dy53My5vcmcvMTk5OS8wMi8yMi1yZGYtc3ludGF4LW5zIyIgeG1sbnM6c3ZnPSJodHRwOi8vd3d3LnczLm9yZy8yMDAwL3N2ZyIgeG1sbnM9Imh0dHA6Ly93d3cudzMub3JnLzIwMDAvc3ZnIiB4bWxuczpzb2RpcG9kaT0iaHR0cDovL3NvZGlwb2RpLnNvdXJjZWZvcmdlLm5ldC9EVEQvc29kaXBvZGktMC5kdGQiIHhtbG5zOmlua3NjYXBlPSJodHRwOi8vd3d3Lmlua3NjYXBlLm9yZy9uYW1lc3BhY2VzL2lua3NjYXBlIiB2ZXJzaW9uPSIxLjEiIGlkPSJzdmc2MTkzMyIgaW5rc2NhcGU6dmVyc2lvbj0iMC45Mi4zICgyNDA1NTQ2LCAyMDE4LTAzLTExKSIgc29kaXBvZGk6ZG9jbmFtZT0iYXp1cmVfc2VjdXJpdHkuc3ZnIiB4PSIwcHgiIHk9IjBweCIgdmlld0JveD0iMCAwIDc1LjUyIDEwMi45NyIgeG1sOnNwYWNlPSJwcmVzZXJ2ZSIgd2lkdGg9Ijc1LjUxOTk5NyIgaGVpZ2h0PSIxMDIuOTciPjxtZXRhZGF0YSBpZD0ibWV0YWRhdGExMzUxMCI+PHJkZjpSREY+PGNjOldvcmsgcmRmOmFib3V0PSIiPjxkYzpmb3JtYXQ+aW1hZ2Uvc3ZnK3htbDwvZGM6Zm9ybWF0PjxkYzp0eXBlIHJkZjpyZXNvdXJjZT0iaHR0cDovL3B1cmwub3JnL2RjL2RjbWl0eXBlL1N0aWxsSW1hZ2UiLz48ZGM6dGl0bGUvPjwvY2M6V29yaz48L3JkZjpSREY+PC9tZXRhZGF0YT48ZGVmcyBpZD0iZGVmczEzNTA4Ii8+JiN4YTs8ZmlsdGVyIGlkPSJmaWx0ZXJfMiI+JiN4YTsJPGZlR2F1c3NpYW5CbHVyIGlkPSJmZUdhdXNzaWFuQmx1cjYxODk4IiBzdGREZXZpYXRpb249IjIiLz4mI3hhOzwvZmlsdGVyPiYjeGE7PHNvZGlwb2RpOm5hbWVkdmlldyBib3JkZXJjb2xvcj0iIzY2NjY2NiIgYm9yZGVyb3BhY2l0eT0iMSIgZml0LW1hcmdpbi1ib3R0b209IjAiIGZpdC1tYXJnaW4tbGVmdD0iMCIgZml0LW1hcmdpbi1yaWdodD0iMCIgZml0LW1hcmdpbi10b3A9IjAiIGdyaWR0b2xlcmFuY2U9IjEwIiBndWlkZXRvbGVyYW5jZT0iMTAiIGlkPSJuYW1lZHZpZXc2MTkzNSIgaW5rc2NhcGU6Y3VycmVudC1sYXllcj0ic3ZnNjE5MzMiIGlua3NjYXBlOmN4PSIxMS45OTUwNzYiIGlua3NjYXBlOmN5PSI1NC43NzcxMTQiIGlua3NjYXBlOnBhZ2VvcGFjaXR5PSIwIiBpbmtzY2FwZTpwYWdlc2hhZG93PSIyIiBpbmtzY2FwZTp3aW5kb3ctaGVpZ2h0PSIxMDE3IiBpbmtzY2FwZTp3aW5kb3ctbWF4aW1pemVkPSIxIiBpbmtzY2FwZTp3aW5kb3ctd2lkdGg9IjE5MjAiIGlua3NjYXBlOndpbmRvdy14PSItOCIgaW5rc2NhcGU6d2luZG93LXk9Ii04IiBpbmtzY2FwZTp6b29tPSIzLjYwNzc3OTQiIG9iamVjdHRvbGVyYW5jZT0iMTAiIHBhZ2Vjb2xvcj0iI2ZmZmZmZiIgc2hvd2dyaWQ9ImZhbHNlIj4mI3hhOwk8L3NvZGlwb2RpOm5hbWVkdmlldz4mI3hhOyYjeGE7PHBhdGggaWQ9InBhdGg2MTkxMSIgaW5rc2NhcGU6Y29ubmVjdG9yLWN1cnZhdHVyZT0iMCIgc3R5bGU9ImZpbGw6IzdmYmEwMCIgZD0iTSA2NC4zOCwxMi4zOCBDIDQxLjY4LDkuOSAzNy43NiwwIDM3Ljc2LDAgMzcuNzYsMCAzMi42LDEyLjc5IDAsMTIuNzkgdiA1Mi44MyBjIDAsNi4zOSAzLjUxLDEyLjM4IDguNDYsMTcuNTQgMTEuMTQsMTEuNzYgMjkuMywxOS44MSAyOS4zLDE5LjgxIDAsMCAzNy43NiwtMTYuNTEgMzcuNzYsLTM3LjM1IFYgMTIuNzkgYyAtNC4xMiwwIC03Ljg0LC0wLjIgLTExLjE0LC0wLjQxIHoiLz4mI3hhOyYjeGE7PHBhdGggaWQ9InBhdGg2MTkxOSIgaW5rc2NhcGU6Y29ubmVjdG9yLWN1cnZhdHVyZT0iMCIgc3R5bGU9ImZpbGw6I2I4ZDQzMjtmaWxsLW9wYWNpdHk6MC40IiBkPSJNIDQ3LjI1LDM0LjA1IDY0LjM4LDEyLjM4IEMgNDEuNjgsOS45IDM3Ljc2LDAgMzcuNzYsMCAzNy43NiwwIDMyLjYsMTIuNzkgMCwxMi43OSBWIDY1LjYyIEMgMCw3Mi4wMSAzLjUxLDc4IDguNDYsODMuMTYgbCAxMi43OSwtMTYuMSB6Ii8+JiN4YTsmI3hhOzxwYXRoIGlkPSJwYXRoNjE5MjciIGlua3NjYXBlOmNvbm5lY3Rvci1jdXJ2YXR1cmU9IjAiIHN0eWxlPSJmaWxsOiNmZmZmZmYiIGQ9Im0gNTIuODMsNTAuNTUgaCAtMi4yNyB2IC03LjQzIGMgMCwtMy41IC0xLjI0LC02LjgxIC0zLjUxLC05LjA4IGwgLTAuMjEsLTAuMiBjIC0yLjI3LC0yLjQ4IC01LjU3LC0zLjkyIC05LjA4LC0zLjkyIC0zLjUsMCAtNi44MSwxLjY1IC05LjA4LDMuOTIgLTIuMjcsMi40NyAtMy43MSw1Ljc4IC0zLjcxLDkuNDkgdiA3LjQzIEggMjIuNyBjIC0wLjgyLDAgLTEuNjUsMC44MiAtMS42NSwxLjY1IHYgMTQuODYgNC41NCBjIDAsMC44MiAwLjgzLDEuNjUgMS42NSwxLjY1IGggMjkuOTIgYyAwLjgzLDAgMS42NSwtMC44MyAxLjY1LC0xLjY1IHYgLTE5LjQgYyAwLjIxLC0xLjI0IC0wLjYyLC0xLjg2IC0xLjQ0LC0xLjg2IHogbSAtOC4yNiwwIGggLTEwLjMxIC0zLjEgdiAtNy40MyBjIDAsLTIuMDYgMC44MywtMy45MiAyLjA2LC01LjM2IDEuMjQsLTEuMjQgMi44OSwtMi4wNyA0Ljc1LC0yLjA3IDEuODYsMCAzLjUxLDAuODMgNC43NSwyLjA3IDAuMiwwLjQxIDAuNjIsMC42MiAwLjgyLDEuMDMgMC44MywxLjI0IDEuMjQsMi42OCAxLjI0LDQuMzMgLTAuMjEsMCAtMC4yMSw3LjQzIC0wLjIxLDcuNDMgeiIvPiYjeGE7PC9zdmc+;" vertex="1" parent="1">
          <mxGeometry x="720" y="490" width="36.89" height="50" as="geometry" />
        </mxCell>
        <mxCell id="lC44Cmv5fuEgETvMBv-x-2141" value="GW Ingress" style="image;aspect=fixed;perimeter=ellipsePerimeter;html=1;align=center;shadow=0;dashed=0;fontColor=#4277BB;labelBackgroundColor=none;fontSize=12;spacingTop=3;image=img/lib/ibm/vpc/PublicGateway.svg;" vertex="1" parent="1">
          <mxGeometry x="999.5" y="320" width="60" height="60" as="geometry" />
        </mxCell>
        <mxCell id="lC44Cmv5fuEgETvMBv-x-2192" style="edgeStyle=orthogonalEdgeStyle;rounded=0;orthogonalLoop=1;jettySize=auto;html=1;" edge="1" parent="1" source="lC44Cmv5fuEgETvMBv-x-2142" target="lC44Cmv5fuEgETvMBv-x-2186">
          <mxGeometry relative="1" as="geometry" />
        </mxCell>
        <mxCell id="lC44Cmv5fuEgETvMBv-x-2142" value="Service 1 Ingress" style="image;aspect=fixed;perimeter=ellipsePerimeter;html=1;align=center;shadow=0;dashed=0;fontColor=#4277BB;labelBackgroundColor=none;fontSize=12;spacingTop=3;image=img/lib/ibm/vpc/PublicGateway.svg;" vertex="1" parent="1">
          <mxGeometry x="999.5" y="450" width="40" height="40" as="geometry" />
        </mxCell>
        <mxCell id="lC44Cmv5fuEgETvMBv-x-2193" style="edgeStyle=orthogonalEdgeStyle;rounded=0;orthogonalLoop=1;jettySize=auto;html=1;" edge="1" parent="1" source="lC44Cmv5fuEgETvMBv-x-2151" target="lC44Cmv5fuEgETvMBv-x-2189">
          <mxGeometry relative="1" as="geometry" />
        </mxCell>
        <mxCell id="lC44Cmv5fuEgETvMBv-x-2151" value="Service 2 Ingress" style="image;aspect=fixed;perimeter=ellipsePerimeter;html=1;align=center;shadow=0;dashed=0;fontColor=#4277BB;labelBackgroundColor=none;fontSize=12;spacingTop=3;image=img/lib/ibm/vpc/PublicGateway.svg;" vertex="1" parent="1">
          <mxGeometry x="999.5" y="521" width="40" height="40" as="geometry" />
        </mxCell>
        <mxCell id="lC44Cmv5fuEgETvMBv-x-2197" style="edgeStyle=orthogonalEdgeStyle;rounded=0;orthogonalLoop=1;jettySize=auto;html=1;" edge="1" parent="1" source="lC44Cmv5fuEgETvMBv-x-2152" target="lC44Cmv5fuEgETvMBv-x-2190">
          <mxGeometry relative="1" as="geometry" />
        </mxCell>
        <mxCell id="lC44Cmv5fuEgETvMBv-x-2152" value="Service 3 Ingress" style="image;aspect=fixed;perimeter=ellipsePerimeter;html=1;align=center;shadow=0;dashed=0;fontColor=#4277BB;labelBackgroundColor=none;fontSize=12;spacingTop=3;image=img/lib/ibm/vpc/PublicGateway.svg;" vertex="1" parent="1">
          <mxGeometry x="1000" y="600" width="40" height="40" as="geometry" />
        </mxCell>
        <mxCell id="lC44Cmv5fuEgETvMBv-x-2198" style="edgeStyle=orthogonalEdgeStyle;rounded=0;orthogonalLoop=1;jettySize=auto;html=1;entryX=0.084;entryY=0.447;entryDx=0;entryDy=0;entryPerimeter=0;" edge="1" parent="1" source="lC44Cmv5fuEgETvMBv-x-2153" target="lC44Cmv5fuEgETvMBv-x-2191">
          <mxGeometry relative="1" as="geometry" />
        </mxCell>
        <mxCell id="lC44Cmv5fuEgETvMBv-x-2153" value="Service 4&amp;nbsp;Ingress" style="image;aspect=fixed;perimeter=ellipsePerimeter;html=1;align=center;shadow=0;dashed=0;fontColor=#4277BB;labelBackgroundColor=none;fontSize=12;spacingTop=3;image=img/lib/ibm/vpc/PublicGateway.svg;" vertex="1" parent="1">
          <mxGeometry x="1000" y="670" width="40" height="40" as="geometry" />
        </mxCell>
        <mxCell id="lC44Cmv5fuEgETvMBv-x-2165" value="Certificates" style="verticalLabelPosition=bottom;html=1;verticalAlign=top;strokeColor=none;fillColor=#3399FF;shape=mxgraph.azure.certificate;dashed=1;fontFamily=Helvetica;fontSize=14;fontColor=#004C99" vertex="1" parent="1">
          <mxGeometry x="860" y="267" width="50" height="40" as="geometry" />
        </mxCell>
        <mxCell id="lC44Cmv5fuEgETvMBv-x-2166" value="Certificates" style="verticalLabelPosition=bottom;html=1;verticalAlign=top;strokeColor=none;fillColor=#3399FF;shape=mxgraph.azure.certificate;dashed=1;fontFamily=Helvetica;fontSize=14;fontColor=#004C99" vertex="1" parent="1">
          <mxGeometry x="780" y="315" width="50" height="40" as="geometry" />
        </mxCell>
        <mxCell id="lC44Cmv5fuEgETvMBv-x-2180" style="edgeStyle=orthogonalEdgeStyle;rounded=0;orthogonalLoop=1;jettySize=auto;html=1;" edge="1" parent="1" source="lC44Cmv5fuEgETvMBv-x-2167" target="lC44Cmv5fuEgETvMBv-x-2173">
          <mxGeometry relative="1" as="geometry" />
        </mxCell>
        <mxCell id="lC44Cmv5fuEgETvMBv-x-2181" style="edgeStyle=orthogonalEdgeStyle;rounded=0;orthogonalLoop=1;jettySize=auto;html=1;entryX=0.62;entryY=0.325;entryDx=0;entryDy=0;entryPerimeter=0;" edge="1" parent="1" source="lC44Cmv5fuEgETvMBv-x-2167" target="lC44Cmv5fuEgETvMBv-x-2179">
          <mxGeometry relative="1" as="geometry" />
        </mxCell>
        <mxCell id="lC44Cmv5fuEgETvMBv-x-2167" value="" style="rounded=1;whiteSpace=wrap;html=1;dashed=1;strokeColor=none;strokeWidth=2;fillColor=#CC6600;fontFamily=Verdana;fontSize=12;fontColor=#00BEF2" vertex="1" parent="1">
          <mxGeometry x="744.16" y="411.5" width="175.84" height="78.5" as="geometry" />
        </mxCell>
        <mxCell id="lC44Cmv5fuEgETvMBv-x-2168" value="Cert Manager" style="sketch=0;outlineConnect=0;fontColor=#232F3E;gradientColor=none;fillColor=#BF0816;strokeColor=none;dashed=0;verticalLabelPosition=bottom;verticalAlign=top;align=center;html=1;fontSize=12;fontStyle=0;aspect=fixed;pointerEvents=1;shape=mxgraph.aws4.long_term_security_credential;" vertex="1" parent="1">
          <mxGeometry x="809.47" y="422" width="45.22" height="40" as="geometry" />
        </mxCell>
        <mxCell id="lC44Cmv5fuEgETvMBv-x-2173" value="Certificates" style="verticalLabelPosition=bottom;html=1;verticalAlign=top;strokeColor=none;fillColor=#3399FF;shape=mxgraph.azure.certificate;dashed=1;fontFamily=Helvetica;fontSize=14;fontColor=#004C99" vertex="1" parent="1">
          <mxGeometry x="620" y="350" width="50" height="40" as="geometry" />
        </mxCell>
        <mxCell id="lC44Cmv5fuEgETvMBv-x-2179" value="Certificates" style="verticalLabelPosition=bottom;html=1;verticalAlign=top;strokeColor=none;fillColor=#3399FF;shape=mxgraph.azure.certificate;dashed=1;fontFamily=Helvetica;fontSize=14;fontColor=#004C99" vertex="1" parent="1">
          <mxGeometry x="590" y="560" width="50" height="40" as="geometry" />
        </mxCell>
        <mxCell id="lC44Cmv5fuEgETvMBv-x-2183" value="" style="sketch=0;html=1;dashed=0;whitespace=wrap;fillColor=#2875E2;strokeColor=#ffffff;points=[[0.005,0.63,0],[0.1,0.2,0],[0.9,0.2,0],[0.5,0,0],[0.995,0.63,0],[0.72,0.99,0],[0.5,1,0],[0.28,0.99,0]];verticalLabelPosition=bottom;align=center;verticalAlign=top;shape=mxgraph.kubernetes.icon;prIcon=pod" vertex="1" parent="1">
          <mxGeometry x="1078.5" y="302" width="41.5" height="38" as="geometry" />
        </mxCell>
        <mxCell id="lC44Cmv5fuEgETvMBv-x-2199" style="edgeStyle=orthogonalEdgeStyle;rounded=0;orthogonalLoop=1;jettySize=auto;html=1;entryX=1;entryY=0.625;entryDx=0;entryDy=0;entryPerimeter=0;" edge="1" parent="1" source="lC44Cmv5fuEgETvMBv-x-2184" target="lC44Cmv5fuEgETvMBv-x-2115">
          <mxGeometry relative="1" as="geometry">
            <Array as="points">
              <mxPoint x="1150" y="361" />
              <mxPoint x="1150" y="150" />
              <mxPoint x="884" y="150" />
              <mxPoint x="884" y="100" />
            </Array>
          </mxGeometry>
        </mxCell>
        <mxCell id="lC44Cmv5fuEgETvMBv-x-2184" value="" style="sketch=0;html=1;dashed=0;whitespace=wrap;fillColor=#2875E2;strokeColor=#ffffff;points=[[0.005,0.63,0],[0.1,0.2,0],[0.9,0.2,0],[0.5,0,0],[0.995,0.63,0],[0.72,0.99,0],[0.5,1,0],[0.28,0.99,0]];verticalLabelPosition=bottom;align=center;verticalAlign=top;shape=mxgraph.kubernetes.icon;prIcon=pod" vertex="1" parent="1">
          <mxGeometry x="1078.5" y="342" width="41.5" height="38" as="geometry" />
        </mxCell>
        <mxCell id="lC44Cmv5fuEgETvMBv-x-2185" value="" style="sketch=0;html=1;dashed=0;whitespace=wrap;fillColor=#2875E2;strokeColor=#ffffff;points=[[0.005,0.63,0],[0.1,0.2,0],[0.9,0.2,0],[0.5,0,0],[0.995,0.63,0],[0.72,0.99,0],[0.5,1,0],[0.28,0.99,0]];verticalLabelPosition=bottom;align=center;verticalAlign=top;shape=mxgraph.kubernetes.icon;prIcon=pod" vertex="1" parent="1">
          <mxGeometry x="1078.5" y="380" width="41.5" height="38" as="geometry" />
        </mxCell>
        <mxCell id="lC44Cmv5fuEgETvMBv-x-2186" value="" style="sketch=0;html=1;dashed=0;whitespace=wrap;fillColor=#2875E2;strokeColor=#ffffff;points=[[0.005,0.63,0],[0.1,0.2,0],[0.9,0.2,0],[0.5,0,0],[0.995,0.63,0],[0.72,0.99,0],[0.5,1,0],[0.28,0.99,0]];verticalLabelPosition=bottom;align=center;verticalAlign=top;shape=mxgraph.kubernetes.icon;prIcon=pod" vertex="1" parent="1">
          <mxGeometry x="1067.5" y="452" width="41.5" height="38" as="geometry" />
        </mxCell>
        <mxCell id="lC44Cmv5fuEgETvMBv-x-2200" style="edgeStyle=orthogonalEdgeStyle;rounded=0;orthogonalLoop=1;jettySize=auto;html=1;" edge="1" parent="1" source="lC44Cmv5fuEgETvMBv-x-2187" target="lC44Cmv5fuEgETvMBv-x-2115">
          <mxGeometry relative="1" as="geometry">
            <Array as="points">
              <mxPoint x="1170" y="471" />
              <mxPoint x="1170" y="100" />
            </Array>
          </mxGeometry>
        </mxCell>
        <mxCell id="lC44Cmv5fuEgETvMBv-x-2187" value="" style="sketch=0;html=1;dashed=0;whitespace=wrap;fillColor=#2875E2;strokeColor=#ffffff;points=[[0.005,0.63,0],[0.1,0.2,0],[0.9,0.2,0],[0.5,0,0],[0.995,0.63,0],[0.72,0.99,0],[0.5,1,0],[0.28,0.99,0]];verticalLabelPosition=bottom;align=center;verticalAlign=top;shape=mxgraph.kubernetes.icon;prIcon=pod" vertex="1" parent="1">
          <mxGeometry x="1109" y="452" width="41.5" height="38" as="geometry" />
        </mxCell>
        <mxCell id="lC44Cmv5fuEgETvMBv-x-2202" style="edgeStyle=orthogonalEdgeStyle;rounded=0;orthogonalLoop=1;jettySize=auto;html=1;" edge="1" parent="1" source="lC44Cmv5fuEgETvMBv-x-2188" target="lC44Cmv5fuEgETvMBv-x-2115">
          <mxGeometry relative="1" as="geometry">
            <Array as="points">
              <mxPoint x="1200" y="542" />
              <mxPoint x="1200" y="96" />
            </Array>
          </mxGeometry>
        </mxCell>
        <mxCell id="lC44Cmv5fuEgETvMBv-x-2188" value="" style="sketch=0;html=1;dashed=0;whitespace=wrap;fillColor=#2875E2;strokeColor=#ffffff;points=[[0.005,0.63,0],[0.1,0.2,0],[0.9,0.2,0],[0.5,0,0],[0.995,0.63,0],[0.72,0.99,0],[0.5,1,0],[0.28,0.99,0]];verticalLabelPosition=bottom;align=center;verticalAlign=top;shape=mxgraph.kubernetes.icon;prIcon=pod" vertex="1" parent="1">
          <mxGeometry x="1109" y="523" width="41.5" height="38" as="geometry" />
        </mxCell>
        <mxCell id="lC44Cmv5fuEgETvMBv-x-2189" value="" style="sketch=0;html=1;dashed=0;whitespace=wrap;fillColor=#2875E2;strokeColor=#ffffff;points=[[0.005,0.63,0],[0.1,0.2,0],[0.9,0.2,0],[0.5,0,0],[0.995,0.63,0],[0.72,0.99,0],[0.5,1,0],[0.28,0.99,0]];verticalLabelPosition=bottom;align=center;verticalAlign=top;shape=mxgraph.kubernetes.icon;prIcon=pod" vertex="1" parent="1">
          <mxGeometry x="1067.5" y="523" width="41.5" height="38" as="geometry" />
        </mxCell>
        <mxCell id="lC44Cmv5fuEgETvMBv-x-2203" style="edgeStyle=orthogonalEdgeStyle;rounded=0;orthogonalLoop=1;jettySize=auto;html=1;" edge="1" parent="1" source="lC44Cmv5fuEgETvMBv-x-2190" target="lC44Cmv5fuEgETvMBv-x-2115">
          <mxGeometry relative="1" as="geometry">
            <Array as="points">
              <mxPoint x="1220" y="620" />
              <mxPoint x="1220" y="96" />
            </Array>
          </mxGeometry>
        </mxCell>
        <mxCell id="lC44Cmv5fuEgETvMBv-x-2190" value="" style="sketch=0;html=1;dashed=0;whitespace=wrap;fillColor=#2875E2;strokeColor=#ffffff;points=[[0.005,0.63,0],[0.1,0.2,0],[0.9,0.2,0],[0.5,0,0],[0.995,0.63,0],[0.72,0.99,0],[0.5,1,0],[0.28,0.99,0]];verticalLabelPosition=bottom;align=center;verticalAlign=top;shape=mxgraph.kubernetes.icon;prIcon=pod" vertex="1" parent="1">
          <mxGeometry x="1070.5" y="601" width="41.5" height="38" as="geometry" />
        </mxCell>
        <mxCell id="lC44Cmv5fuEgETvMBv-x-2204" style="edgeStyle=orthogonalEdgeStyle;rounded=0;orthogonalLoop=1;jettySize=auto;html=1;entryX=0.65;entryY=0.938;entryDx=0;entryDy=0;entryPerimeter=0;" edge="1" parent="1" source="lC44Cmv5fuEgETvMBv-x-2191" target="lC44Cmv5fuEgETvMBv-x-2115">
          <mxGeometry relative="1" as="geometry">
            <Array as="points">
              <mxPoint x="1250" y="692" />
              <mxPoint x="1250" y="110" />
            </Array>
          </mxGeometry>
        </mxCell>
        <mxCell id="lC44Cmv5fuEgETvMBv-x-2191" value="" style="sketch=0;html=1;dashed=0;whitespace=wrap;fillColor=#2875E2;strokeColor=#ffffff;points=[[0.005,0.63,0],[0.1,0.2,0],[0.9,0.2,0],[0.5,0,0],[0.995,0.63,0],[0.72,0.99,0],[0.5,1,0],[0.28,0.99,0]];verticalLabelPosition=bottom;align=center;verticalAlign=top;shape=mxgraph.kubernetes.icon;prIcon=pod" vertex="1" parent="1">
          <mxGeometry x="1071.5" y="673" width="41.5" height="38" as="geometry" />
        </mxCell>
      </root>
    </mxGraphModel>
  </diagram>
</mxfile>
